<?xml version="1.0" encoding="UTF-8" standalone="no"?>
<!-- Created with Inkscape (http://www.inkscape.org/) -->

<svg
   width="173.90727mm"
   height="32.99802mm"
   viewBox="0 0 173.90727 32.99802"
   version="1.1"
   id="svg1"
   inkscape:version="1.4.2 (f4327f4, 2025-05-13)"
   sodipodi:docname="logo_white_text.svg"
   xmlns:inkscape="http://www.inkscape.org/namespaces/inkscape"
   xmlns:sodipodi="http://sodipodi.sourceforge.net/DTD/sodipodi-0.dtd"
   xmlns="http://www.w3.org/2000/svg"
   xmlns:svg="http://www.w3.org/2000/svg">
  <sodipodi:namedview
     id="namedview1"
     pagecolor="#ffffff"
     bordercolor="#000000"
     borderopacity="0.25"
     inkscape:showpageshadow="2"
     inkscape:pageopacity="0.0"
     inkscape:pagecheckerboard="true"
     inkscape:deskcolor="#d1d1d1"
     inkscape:document-units="mm"
     inkscape:zoom="1.3772587"
     inkscape:cx="257.7584"
     inkscape:cy="36.66704"
     inkscape:window-width="1920"
     inkscape:window-height="991"
     inkscape:window-x="-9"
     inkscape:window-y="-9"
     inkscape:window-maximized="1"
     inkscape:current-layer="layer1" />
  <defs
     id="defs1" />
  <g
     inkscape:label="Layer 1"
     inkscape:groupmode="layer"
     id="layer1"
     transform="translate(-21.0983,-122.9169)">
    <path
       id="text5-0-1-7"
       style="font-weight:bold;font-size:22.5778px;line-height:0;font-family:Comfortaa;-inkscape-font-specification:'Comfortaa Bold';letter-spacing:-0.529167px;fill:#ffffff;fill-opacity:1;stroke-width:2.60338;stroke-linecap:round"
       d="m 82.415319,128.76062 c -0.43104,0 -0.793373,0.13705 -1.087273,0.41135 -0.2743,0.2743 -0.411861,0.63715 -0.411861,1.08779 v 7.00991 c -0.302894,-0.24189 -0.625784,-0.46243 -0.96945,-0.66198 -1.214753,-0.72493 -2.586237,-1.08727 -4.114477,-1.08727 -0.102638,0 -0.204612,0.001 -0.305925,0.005 -0.09336,-0.003 -0.187608,-0.005 -0.282153,-0.005 -1.43028,0 -2.713501,0.36233 -3.849894,1.08727 -1.13638,0.70534 -2.037558,1.67503 -2.703711,2.90938 -0.646567,1.21476 -0.969967,2.5961 -0.969967,4.14394 0,0.006 -1e-5,0.012 0,0.0181 -4e-6,0.004 0,0.008 0,0.0114 0,1.54784 0.323407,2.93904 0.969967,4.17339 0.66616,1.21476 1.567331,2.18445 2.703711,2.90938 1.136387,0.70535 2.419614,1.05834 3.849894,1.05834 0.09535,0 0.190176,-0.002 0.28422,-0.005 0.100576,0.003 0.201976,0.005 0.303858,0.005 1.52824,0 2.899724,-0.35299 4.114477,-1.05834 0.343674,-0.20509 0.666551,-0.43057 0.96945,-0.67644 v 0.14779 c 0,0.43105 0.137561,0.79338 0.411861,1.08728 0.293887,0.2743 0.656219,0.41134 1.087273,0.41134 0.43104,0 0.783516,-0.13704 1.057816,-0.41134 0.293888,-0.2939 0.4408,-0.65623 0.4408,-1.08728 v -6.55412 c 0,-0.004 4e-6,-0.008 0,-0.0114 1.1e-5,-0.006 0,-0.0121 0,-0.0181 v -13.40125 c 0,-0.45064 -0.137036,-0.81349 -0.411344,-1.08779 -0.2743,-0.2743 -0.636639,-0.41135 -1.087272,-0.41135 z m -6.583061,9.4046 c 0.999232,0 1.890543,0.24502 2.674255,0.73484 0.01103,0.007 0.02211,0.0135 0.03307,0.0202 0.768061,0.46878 1.374203,1.11809 1.818494,1.94872 0.44818,0.81841 0.673481,1.75352 0.675928,2.80448 -0.0017,1.03364 -0.227034,1.9699 -0.675928,2.80913 -0.450633,0.84249 -1.067853,1.5085 -1.851567,1.99833 -0.783712,0.47022 -1.675024,0.70538 -2.674255,0.70538 -0.979647,0 -1.871466,-0.23516 -2.674772,-0.70538 -0.01126,-0.007 -0.0224,-0.0141 -0.03359,-0.0212 -0.768017,-0.48778 -1.383443,-1.14676 -1.846916,-1.97714 -0.448174,-0.83788 -0.673475,-1.77281 -0.675927,-2.80448 0.0017,-1.05299 0.227041,-1.98943 0.675927,-2.80913 0.470227,-0.84249 1.096792,-1.49864 1.880506,-1.96887 0.803306,-0.48982 1.695125,-0.73484 2.674772,-0.73484 z" />
    <path
       id="text6-7-6-7"
       style="font-weight:bold;font-size:22.5778px;line-height:0;font-family:Comfortaa;-inkscape-font-specification:'Comfortaa Bold';letter-spacing:-0.529167px;fill:#ffffff;fill-opacity:1;stroke-width:2.60338;stroke-linecap:round"
       d="m 92.2633,135.52042 c -1.43028,0 -2.713509,0.35247 -3.849898,1.05781 -1.13638,0.72494 -2.037551,1.69463 -2.703711,2.90939 -0.64656,1.23434 -0.969966,2.62555 -0.969966,4.17339 0,0.005 -8e-6,0.0101 0,0.015 -8e-6,0.005 0,0.01 0,0.0145 0,1.54784 0.323406,2.93904 0.969966,4.17339 0.66616,1.21476 1.567331,2.18445 2.703711,2.90938 1.136389,0.70535 2.419618,1.05834 3.849898,1.05834 0.096,0 0.19158,-0.002 0.28628,-0.005 0.0999,0.003 0.20058,0.005 0.30179,0.005 1.52824,0 2.89973,-0.36286 4.11448,-1.08779 0.34367,-0.19955 0.66707,-0.42008 0.96997,-0.66198 v 0.16278 c 0,0.43105 0.13704,0.79338 0.41134,1.08728 0.29389,0.2743 0.65622,0.41134 1.08727,0.41134 0.43104,0 0.78404,-0.13704 1.05834,-0.41134 0.29388,-0.2939 0.4408,-0.65623 0.4408,-1.08728 v -6.55412 c 0,-0.005 1e-5,-0.01 0,-0.0145 1e-5,-0.005 0,-0.0101 0,-0.015 v -6.55361 c 0,-0.43105 -0.14692,-0.79338 -0.4408,-1.08727 -0.2743,-0.2743 -0.6273,-0.41186 -1.05834,-0.41186 -0.43105,0 -0.79338,0.13756 -1.08727,0.41186 -0.2743,0.29389 -0.41134,0.65622 -0.41134,1.08727 v 0.16227 c -0.3029,-0.2419 -0.6263,-0.46243 -0.96997,-0.66198 -1.21475,-0.72493 -2.58624,-1.08727 -4.11448,-1.08727 -0.10121,0 -0.20187,0.001 -0.30179,0.005 -0.0947,-0.003 -0.19026,-0.005 -0.28628,-0.005 z m 0.58807,2.6448 c 0.0184,0 0.0369,3.5e-4 0.0553,5.1e-4 0.9769,0.009 1.8497,0.25354 2.61896,0.73433 0.78371,0.47023 1.40093,1.12638 1.85157,1.96887 0.44855,0.81909 0.67385,1.75503 0.67592,2.80706 -0.002,1.05204 -0.22737,1.98746 -0.67592,2.80655 -0.45064,0.84249 -1.06786,1.49864 -1.85157,1.96887 -0.76926,0.48079 -1.64206,0.72597 -2.61896,0.73484 -0.0184,1.6e-4 -0.0369,0 -0.0553,0 -0.0181,0 -0.0362,1.6e-4 -0.0543,0 -0.95838,-0.009 -1.8315,-0.25405 -2.61999,-0.73484 -0.783717,-0.47023 -1.410797,-1.12638 -1.881023,-1.96887 -0.448554,-0.81909 -0.673852,-1.75451 -0.675928,-2.80655 5.19e-4,-0.26301 0.01498,-0.51894 0.04341,-0.76739 0.08527,-0.74535 0.296104,-1.42535 0.63252,-2.03967 0.470226,-0.84249 1.097306,-1.49864 1.881021,-1.96887 0.78849,-0.48079 1.66161,-0.72546 2.61999,-0.73433 0.018,-1.6e-4 0.0362,-5.1e-4 0.0543,-5.1e-4 z" />
    <path
       id="text6-1-1-4-8"
       style="font-weight:bold;font-size:22.5778px;line-height:0;font-family:Comfortaa;-inkscape-font-specification:'Comfortaa Bold';letter-spacing:-0.529167px;fill:#ffffff;fill-opacity:1;stroke-width:2.60338;stroke-linecap:round"
       d="m 155.56124,135.53644 c -1.43028,0 -2.71352,0.35247 -3.84989,1.05781 -1.13639,0.72494 -2.03806,1.69463 -2.70423,2.90939 -0.64656,1.23435 -0.96945,2.62555 -0.96945,4.17339 0,0.005 -1e-5,0.0101 0,0.015 -1e-5,0.005 0,0.01 0,0.0145 0,1.54784 0.32289,2.93904 0.96945,4.17339 0.66617,1.21475 1.56784,2.18445 2.70423,2.90938 1.13637,0.70535 2.41961,1.05782 3.84989,1.05782 0.096,0 0.19107,-10e-4 0.28577,-0.005 0.0999,0.003 0.20058,0.005 0.30179,0.005 1.52825,0 2.89973,-0.36234 4.11448,-1.08727 0.34367,-0.19955 0.66707,-0.42008 0.96997,-0.66198 v 0.16227 c 0,0.43104 0.13704,0.79389 0.41134,1.08779 0.29389,0.2743 0.65623,0.41134 1.08727,0.41134 0.43104,0 0.78403,-0.13704 1.05834,-0.41134 0.29388,-0.2939 0.4408,-0.65675 0.4408,-1.08779 v -6.55361 c 0,-0.01 3e-5,-0.0197 0,-0.0294 v -6.55361 c 0,-0.43104 -0.14692,-0.79389 -0.4408,-1.08779 -0.27431,-0.2743 -0.6273,-0.41134 -1.05834,-0.41134 -0.43104,0 -0.79338,0.13704 -1.08727,0.41134 -0.2743,0.2939 -0.41134,0.65675 -0.41134,1.08779 v 0.16227 c -0.3029,-0.2419 -0.6263,-0.46243 -0.96997,-0.66198 -1.21475,-0.72493 -2.58623,-1.08727 -4.11448,-1.08727 -0.10121,0 -0.20187,0.001 -0.30179,0.005 -0.0947,-0.003 -0.18974,-0.005 -0.28577,-0.005 z m 0.58756,2.6448 c 0.0184,0 0.0369,3.5e-4 0.0553,5.1e-4 0.9769,0.009 1.84971,0.25354 2.61896,0.73433 0.7837,0.47023 1.40092,1.12638 1.85156,1.96887 0.44855,0.81909 0.67385,1.75503 0.67593,2.80706 -0.002,1.05203 -0.22738,1.98746 -0.67593,2.80655 -0.45064,0.84249 -1.06786,1.49864 -1.85156,1.96887 -0.76925,0.48079 -1.64206,0.72597 -2.61896,0.73484 -0.0184,1.6e-4 -0.0369,0 -0.0553,0 -0.0181,0 -0.0362,1.6e-4 -0.0543,0 -0.95837,-0.009 -1.8315,-0.25405 -2.61999,-0.73484 -0.78372,-0.47023 -1.41079,-1.12638 -1.88103,-1.96887 -0.44854,-0.81909 -0.67385,-1.75452 -0.67592,-2.80655 0.002,-1.05203 0.22738,-1.98797 0.67592,-2.80706 0.47024,-0.84249 1.09731,-1.49864 1.88103,-1.96887 0.78849,-0.48079 1.66162,-0.72546 2.61999,-0.73433 0.018,-1.6e-4 0.0362,-5.1e-4 0.0543,-5.1e-4 z" />
    <path
       id="text6-4-7-0-7"
       style="font-weight:bold;font-size:22.5778px;line-height:0;font-family:Comfortaa;-inkscape-font-specification:'Comfortaa Bold';letter-spacing:-0.529167px;fill:#ffffff;fill-opacity:1;stroke-width:2.60338;stroke-linecap:round"
       d="m 118.83273,135.55401 c -1.43028,0 -2.71403,0.35298 -3.85041,1.05833 -1.13638,0.72493 -2.03755,1.69462 -2.70371,2.90938 -0.64656,1.23435 -0.96996,2.62557 -0.96996,4.17339 0,0.005 -1e-5,0.01 0,0.0145 -1e-5,0.005 0,0.0101 0,0.015 0,1.54783 0.3234,2.93904 0.96996,4.17339 0.66616,1.21476 1.56733,2.18445 2.70371,2.90938 1.13638,0.70535 2.42013,1.05782 3.85041,1.05782 0.096,0 0.19107,-10e-4 0.28577,-0.005 0.0999,0.003 0.20059,0.005 0.3018,0.005 1.52824,0 2.89972,-0.36234 4.11447,-1.08727 0.34367,-0.19956 0.66707,-0.42009 0.96997,-0.66198 v 0.16226 c 0,0.43106 0.13704,0.79339 0.41134,1.08728 0.29389,0.2743 0.65623,0.41186 1.08728,0.41186 0.43104,0 0.78402,-0.13756 1.05833,-0.41186 0.29389,-0.29389 0.4408,-0.65622 0.4408,-1.08728 v -6.5536 c 0,-0.01 3e-5,-0.0197 0,-0.0295 v -6.5536 c 0,-0.43106 -0.14691,-0.7939 -0.4408,-1.08779 -0.27431,-0.2743 -0.62729,-0.41135 -1.05833,-0.41135 -0.43105,0 -0.79339,0.13705 -1.08728,0.41135 -0.2743,0.29389 -0.41134,0.65673 -0.41134,1.08779 v 0.16226 c -0.3029,-0.24189 -0.6263,-0.46242 -0.96997,-0.66197 -1.21475,-0.72494 -2.58623,-1.08779 -4.11447,-1.08779 -0.10121,0 -0.20188,0.002 -0.3018,0.005 -0.0947,-0.003 -0.18974,-0.005 -0.28577,-0.005 z m 0.5333,2.64531 c 0.018,-1.6e-4 0.0362,0 0.0543,0 0.0184,0 0.0369,-1.6e-4 0.0553,0 0.97691,0.009 1.84971,0.25406 2.61896,0.73484 0.78371,0.47023 1.40093,1.12638 1.85157,1.96888 0.44855,0.81908 0.67385,1.75451 0.67592,2.80654 -0.002,1.05204 -0.22737,1.98798 -0.67592,2.80707 -0.45064,0.84249 -1.06786,1.49864 -1.85157,1.96887 -0.76925,0.48078 -1.64205,0.72545 -2.61896,0.73432 -0.0184,1.6e-4 -0.0369,5.2e-4 -0.0553,5.2e-4 -0.0181,0 -0.0363,-3.6e-4 -0.0543,-5.2e-4 -0.95838,-0.009 -1.8315,-0.25354 -2.61999,-0.73432 -0.78371,-0.47023 -1.41079,-1.12638 -1.88102,-1.96887 -0.44855,-0.81909 -0.67385,-1.75503 -0.67593,-2.80707 0.002,-1.05203 0.22738,-1.98746 0.67593,-2.80654 0.47023,-0.8425 1.09731,-1.49865 1.88102,-1.96888 0.78849,-0.48078 1.66161,-0.72597 2.61999,-0.73484 z" />
    <path
       d="m 109.66435,151.86532 q -1.46946,0 -2.64503,-0.73474 -1.17557,-0.76412 -1.85153,-2.05725 -0.67595,-1.29312 -0.67595,-2.90954 v -14.01868 q 0,-0.64657 0.41145,-1.05802 0.41145,-0.41145 1.05801,-0.41145 0.64657,0 1.05802,0.41145 0.41145,0.41145 0.41145,1.05802 v 14.01868 q 0,1.17558 0.64656,1.96909 0.64656,0.79351 1.58702,0.79351 h 0.99924 q 0.52901,0 0.88167,0.41145 0.38206,0.41145 0.38206,1.05801 0,0.64656 -0.49961,1.05802 -0.47022,0.41145 -1.23435,0.41145 z m -6.52442,-12.96068 q -0.61717,0 -0.99923,-0.35267 -0.38207,-0.35267 -0.38207,-0.88168 0,-0.58778 0.38207,-0.94045 0.38206,-0.35267 0.99923,-0.35267 h 6.78892 q 0.61719,0 0.99924,0.35267 0.38206,0.35267 0.38206,0.94045 0,0.52901 -0.38206,0.88168 -0.38205,0.35267 -0.99924,0.35267 z"
       id="text7-7-6-3"
       style="font-weight:bold;font-size:22.5778px;line-height:0;font-family:Comfortaa;-inkscape-font-specification:'Comfortaa Bold';letter-spacing:-0.529167px;fill:#ffffff;fill-opacity:1;stroke-width:2.60338;stroke-linecap:round"
       aria-label="t&#10;" />
    <path
       d="m 136.23252,151.84731 q -1.46947,0 -2.64504,-0.73474 -1.17556,-0.76412 -1.85152,-2.05725 -0.67595,-1.29312 -0.67595,-2.90954 V 132.1271 q 0,-0.64657 0.41145,-1.05802 0.41145,-0.41145 1.05801,-0.41145 0.64656,0 1.05801,0.41145 0.41145,0.41145 0.41145,1.05802 v 14.01868 q 0,1.17558 0.64657,1.96909 0.64656,0.79351 1.58702,0.79351 h 0.99924 q 0.529,0 0.88167,0.41145 0.38206,0.41145 0.38206,1.05801 0,0.64656 -0.49961,1.05802 -0.47023,0.41145 -1.23436,0.41145 z m -6.52442,-12.96068 q -0.61717,0 -0.99923,-0.35267 -0.38207,-0.35267 -0.38207,-0.88168 0,-0.58778 0.38207,-0.94045 0.38206,-0.35267 0.99923,-0.35267 h 6.78892 q 0.61718,0 0.99924,0.35267 0.38206,0.35267 0.38206,0.94045 0,0.52901 -0.38206,0.88168 -0.38206,0.35267 -0.99924,0.35267 z"
       id="text7-3-7-1-0"
       style="font-weight:bold;font-size:22.5778px;line-height:0;font-family:Comfortaa;-inkscape-font-specification:'Comfortaa Bold';letter-spacing:-0.529167px;fill:#ffffff;fill-opacity:1;stroke-width:2.60338;stroke-linecap:round"
       aria-label="t&#10;" />
    <path
       d="m 146.405,151.84731 q -1.46946,0 -2.64503,-0.73474 -1.17557,-0.76412 -1.85153,-2.05725 -0.67596,-1.29312 -0.67596,-2.90954 V 132.1271 q 0,-0.64657 0.41145,-1.05802 0.41145,-0.41145 1.05803,-0.41145 0.64656,0 1.05801,0.41145 0.41145,0.41145 0.41145,1.05802 v 14.01868 q 0,1.17558 0.64656,1.96909 0.64657,0.79351 1.58702,0.79351 h 0.99923 q 0.52901,0 0.88168,0.41145 0.38206,0.41145 0.38206,1.05801 0,0.64656 -0.49962,1.05802 -0.47022,0.41145 -1.23435,0.41145 z m -6.52443,-12.96068 q -0.61717,0 -0.99922,-0.35267 -0.38208,-0.35267 -0.38208,-0.88168 0,-0.58778 0.38208,-0.94045 0.38205,-0.35267 0.99922,-0.35267 h 6.78894 q 0.61718,0 0.99923,0.35267 0.38206,0.35267 0.38206,0.94045 0,0.52901 -0.38206,0.88168 -0.38205,0.35267 -0.99923,0.35267 z"
       id="text7-5-7-8-3"
       style="font-weight:bold;font-size:22.5778px;line-height:0;font-family:Comfortaa;-inkscape-font-specification:'Comfortaa Bold';letter-spacing:-0.529167px;fill:#ffffff;fill-opacity:1;stroke-width:2.603;stroke-linecap:round;stroke-dasharray:none"
       aria-label="t&#10;" />
    <path
       d="m 173.16757,151.84731 q -2.35114,0 -4.20266,-1.05802 -1.82214,-1.0874 -2.88016,-2.90953 -1.02861,-1.85153 -1.02861,-4.17328 0,-2.38053 1.02861,-4.23206 1.02864,-1.85152 2.82138,-2.88015 1.79275,-1.05801 4.11449,-1.05801 1.73397,0 3.17405,0.67595 1.44007,0.64657 2.58625,1.96908 0.41145,0.47023 0.2939,0.96985 -0.11755,0.49962 -0.64657,0.88168 -0.41145,0.29389 -0.91106,0.20572 -0.49961,-0.11755 -0.91106,-0.529 -1.44008,-1.52825 -3.5855,-1.52825 -1.49884,0 -2.64503,0.70535 -1.14618,0.67595 -1.79274,1.9103 -0.64656,1.23435 -0.64656,2.90954 0,1.58702 0.64656,2.82137 0.67595,1.23435 1.85152,1.96908 1.17556,0.70534 2.7332,0.70534 1.02863,0 1.79275,-0.23511 0.79351,-0.2645 1.44007,-0.79351 0.47024,-0.38206 0.96985,-0.41145 0.49962,-0.0588 0.88167,0.2645 0.49963,0.41146 0.5584,0.94046 0.0588,0.49962 -0.35266,0.91107 -2.11603,1.96908 -5.29009,1.96908 z"
       id="text9-3-9-8"
       style="font-weight:bold;font-size:22.5778px;line-height:0;font-family:Comfortaa;-inkscape-font-specification:'Comfortaa Bold';letter-spacing:-0.529167px;fill:#ffffff;fill-opacity:1;stroke-width:2.60338;stroke-linecap:round"
       aria-label="c" />
    <path
       d="m 181.42771,145.96945 q -0.64656,0 -1.08741,-0.41145 -0.41143,-0.44084 -0.41143,-1.0874 v -14.10686 q 0,-0.67595 0.41143,-1.0874 0.44085,-0.41145 1.08741,-0.41145 0.67595,0 1.08741,0.41145 0.41145,0.41145 0.41145,1.0874 v 14.10686 q 0,0.64656 -0.41145,1.0874 -0.41146,0.41145 -1.08741,0.41145 z m 12.079,5.87786 q -0.64655,0 -1.08741,-0.41145 -0.41145,-0.44084 -0.41145,-1.08741 v -7.22976 q 0,-1.67519 -0.61716,-2.7332 -0.61718,-1.05802 -1.67519,-1.55763 -1.02862,-0.52901 -2.38053,-0.52901 -1.23436,0 -2.23358,0.49962 -0.99925,0.49961 -1.58702,1.3519 -0.58779,0.8229 -0.58779,1.91031 h -1.85153 q 0,-1.85153 0.88168,-3.2916 0.91107,-1.46947 2.4687,-2.32176 1.55763,-0.85229 3.49733,-0.85229 2.02786,0 3.61488,0.88168 1.61641,0.85229 2.52748,2.52748 0.94045,1.67519 0.94045,4.1145 v 7.22976 q 0,0.64657 -0.44084,1.08741 -0.41145,0.41145 -1.05802,0.41145 z m -12.079,0 q -0.64656,0 -1.08741,-0.41145 -0.41143,-0.44084 -0.41143,-1.08741 v -13.10762 q 0,-0.67595 0.41143,-1.0874 0.44085,-0.41145 1.08741,-0.41145 0.67595,0 1.08741,0.41145 0.41145,0.41145 0.41145,1.0874 v 13.10762 q 0,0.64657 -0.41145,1.08741 -0.41146,0.41145 -1.08741,0.41145 z"
       id="text10-3-8-2"
       style="font-weight:bold;font-size:22.5778px;line-height:0;font-family:Comfortaa;-inkscape-font-specification:'Comfortaa Bold';letter-spacing:-0.529167px;fill:#ffffff;fill-opacity:1;stroke-width:2.60338;stroke-linecap:round"
       aria-label="h" />
    <path
       style="fill:#ffffff;fill-opacity:1;stroke-width:0.0647419"
       d="m 48.816302,151.64496 c -0.0442,-0.008 -0.681614,-0.0929 -0.797169,-0.10643 -0.04093,-0.005 -0.09707,-0.0149 -0.124772,-0.0224 -0.02769,-0.008 -0.177212,-0.0436 -0.332262,-0.0801 -0.250513,-0.059 -0.367113,-0.0911 -0.715069,-0.19674 -0.05079,-0.0154 -0.102512,-0.0437 -0.114957,-0.0627 -0.01247,-0.0191 -0.03225,-0.0284 -0.04401,-0.0208 -0.02558,0.0167 -0.524665,-0.20271 -0.68962,-0.30315 -0.06407,-0.039 -0.191818,-0.1127 -0.283884,-0.16375 -0.1675,-0.0929 -0.246883,-0.16954 -0.204396,-0.19722 0.01242,-0.008 0.04839,-0.007 0.07989,0.003 0.03149,0.01 0.07324,0.007 0.09277,-0.005 0.01952,-0.0127 0.04266,-0.0121 0.05142,0.001 0.0088,0.0134 0.06074,0.0361 0.115507,0.0505 0.05476,0.0143 0.249364,0.0659 0.432448,0.11469 0.458902,0.12226 1.301943,0.29761 1.614338,0.33578 0.142621,0.0174 0.269263,0.0343 0.28143,0.0375 0.07163,0.0187 0.555741,0.0464 0.715654,0.0409 0.205246,-0.007 0.251293,-0.0221 0.218799,-0.0717 -0.04114,-0.0631 -0.05444,-0.34024 -0.02278,-0.47959 0.04799,-0.21118 0.192982,-0.45577 0.370024,-0.62423 0.159908,-0.15215 0.181572,-0.21285 0.06171,-0.17288 -0.03647,0.0122 -0.197465,0.036 -0.357783,0.0531 -0.16032,0.017 -0.30672,0.0409 -0.325327,0.053 -0.01861,0.0121 -0.04088,0.0112 -0.0495,-0.002 -0.0086,-0.0132 -0.04691,-0.015 -0.08512,-0.004 -0.125223,0.0364 -0.803865,0.0648 -1.188379,0.0497 -0.368631,-0.0144 -1.314226,-0.18559 -1.352874,-0.24488 -0.01073,-0.0165 -0.05175,-0.0367 -0.09119,-0.0449 -0.06722,-0.014 -0.06882,-0.0174 -0.02585,-0.0554 0.05669,-0.0502 0.283696,-0.0946 0.306278,-0.06 0.0091,0.014 0.03108,0.016 0.04881,0.004 0.01773,-0.0116 0.173087,-0.0203 0.34524,-0.0195 0.172152,8.2e-4 0.334973,-0.003 0.36183,-0.008 0.02685,-0.005 0.11445,-0.0103 0.194668,-0.0111 0.239101,-0.003 0.281158,-0.005 0.475142,-0.0315 0.412695,-0.0556 0.49158,-0.0634 0.511861,-0.0502 0.01166,0.008 0.03159,0.007 0.04431,-0.001 0.01273,-0.008 0.153997,-0.0335 0.313935,-0.0559 0.159948,-0.0225 0.33149,-0.0576 0.381208,-0.0781 0.04972,-0.0205 0.108464,-0.0358 0.130542,-0.0339 0.06265,0.005 0.529323,-0.12884 0.594271,-0.17065 0.06479,-0.0417 0.06372,-0.0507 -0.01084,-0.0939 -0.13264,-0.0769 -0.242249,-0.19576 -0.391162,-0.42421 -0.0896,-0.13746 -0.154724,-0.26245 -0.146197,-0.28059 0.0085,-0.018 -0.006,-0.0656 -0.03221,-0.10575 -0.02682,-0.0411 -0.03494,-0.0905 -0.01861,-0.11305 0.01596,-0.022 0.01819,-0.0566 0.005,-0.0768 -0.01317,-0.0202 -0.0067,-0.1365 0.01447,-0.25843 0.0398,-0.22959 0.03334,-0.29792 -0.02106,-0.22281 -0.04131,0.057 -0.807599,0.55935 -0.979818,0.64227 -0.342157,0.16475 -1.081935,0.39002 -1.402322,0.42702 -0.255136,0.0295 -0.626253,0.0232 -0.62707,-0.0107 -0.0012,-0.046 0.160441,-0.14025 0.308677,-0.18011 0.07362,-0.0198 0.223963,-0.0752 0.334088,-0.1231 0.110128,-0.0479 0.247405,-0.10345 0.305059,-0.12343 0.05766,-0.02 0.291309,-0.13043 0.519235,-0.24546 0.534876,-0.26993 1.099571,-0.67111 1.310901,-0.93132 0.039,-0.048 -0.09772,-0.13398 -0.249973,-0.15717 -0.183508,-0.028 -0.528846,0.002 -0.68553,0.0591 -1.058631,0.38703 -1.259347,0.45214 -1.658621,0.53802 -0.497462,0.10701 -1.052792,0.0737 -1.34665,-0.0807 -0.0722,-0.0379 -0.137077,-0.0566 -0.144174,-0.0415 -0.0071,0.0151 -0.08523,-0.0835 -0.173589,-0.21908 l -0.160688,-0.24651 -0.03364,-0.36139 c -0.0185,-0.19877 -0.04483,-0.37856 -0.0585,-0.39955 -0.01368,-0.021 -0.01989,-0.0632 -0.01382,-0.0939 0.03423,-0.1726 -0.30716,-0.94718 -0.563429,-1.27838 -0.189625,-0.24506 -0.555365,-0.61303 -0.69757,-0.70183 -0.06329,-0.0395 -0.178377,-0.12143 -0.255683,-0.18213 -0.07733,-0.0607 -0.151818,-0.10848 -0.165529,-0.10627 -0.0137,0.002 -0.03756,-0.0153 -0.05301,-0.0389 -0.01545,-0.0236 -0.07426,-0.0649 -0.130663,-0.0919 -0.05641,-0.0269 -0.100595,-0.0584 -0.09817,-0.0699 0.01259,-0.0597 0.350192,-0.0862 0.41629,-0.0327 0.02347,0.019 0.06994,0.027 0.10327,0.0178 0.03334,-0.009 0.06582,-0.009 0.07219,9.8e-4 0.0064,0.01 0.102894,0.0466 0.214489,0.0819 0.111598,0.0353 0.238519,0.0846 0.282039,0.10961 0.04352,0.025 0.118471,0.0611 0.166552,0.0803 0.09323,0.0371 0.343902,0.2113 0.436219,0.30311 0.03065,0.0305 0.07483,0.0619 0.09817,0.0698 0.02333,0.008 0.08988,0.0719 0.147931,0.14222 0.05801,0.0703 0.124862,0.13446 0.148507,0.14255 0.05167,0.0176 0.439363,0.62329 0.527925,0.82479 0.144331,0.32843 0.216653,0.57958 0.276815,0.96134 0.0037,0.0237 0.09684,-0.008 0.265057,-0.0894 0.142624,-0.0693 0.353738,-0.17119 0.469149,-0.22647 1.309153,-0.62709 3.605526,-2.04444 4.909115,-3.02996 0.338183,-0.25567 0.819858,-0.63197 1.070397,-0.83623 0.250532,-0.20426 0.542063,-0.44138 0.64784,-0.52693 0.295703,-0.23919 0.553992,-0.4726 0.672077,-0.60736 0.05892,-0.0672 0.136963,-0.14169 0.173431,-0.16547 0.06029,-0.0393 0.401987,-0.36984 0.928839,-0.89854 0.274594,-0.27555 0.562421,-0.5924 0.572866,-0.63062 0.0048,-0.0174 -0.142989,-0.0413 -0.328342,-0.0531 -0.451101,-0.0286 -1.068434,-0.15419 -1.318421,-0.26812 -0.04607,-0.021 -0.09493,-0.0391 -0.108592,-0.0403 -0.02203,-0.002 -0.29873,-0.13684 -0.418883,-0.20426 -0.243866,-0.13682 -0.302528,-0.1754 -0.329405,-0.21662 -0.01712,-0.0262 -0.04817,-0.0523 -0.06898,-0.0579 -0.06762,-0.0182 -0.32451,-0.26416 -0.405296,-0.38808 -0.06394,-0.0981 -0.07013,-0.12607 -0.03305,-0.14928 0.07191,-0.0449 0.143268,-0.0285 0.539541,0.12443 0.693226,0.2676 1.346573,0.38466 2.127081,0.38108 0.241476,-10e-4 0.910864,-0.085 0.966226,-0.12106 0.01633,-0.0106 0.09321,-0.0293 0.170865,-0.0415 0.07765,-0.0122 0.239415,-0.0489 0.359468,-0.0816 0.306813,-0.0835 0.325812,-0.0879 0.503783,-0.11578 0.08753,-0.0137 0.182014,-0.0398 0.209982,-0.0581 0.02796,-0.0182 0.0578,-0.0225 0.0663,-0.009 0.0085,0.013 0.05191,0.01 0.09647,-0.007 0.101791,-0.0385 0.523471,-0.0122 0.755892,0.0472 0.257481,0.0658 0.523874,0.15594 0.541791,0.18343 0.0086,0.0132 0.05621,0.0356 0.105867,0.0498 0.04965,0.0142 0.100449,0.0414 0.112894,0.0605 0.01247,0.0191 0.03422,0.0272 0.0484,0.0179 0.01417,-0.009 0.03608,-9.8e-4 0.0487,0.0184 0.01261,0.0193 0.06513,0.0495 0.116717,0.0669 0.05158,0.0175 0.112505,0.0527 0.135383,0.0783 0.02287,0.0256 0.06485,0.0538 0.09324,0.0626 0.02841,0.009 0.08039,0.0426 0.115504,0.0752 0.0351,0.0326 0.07293,0.0532 0.08402,0.046 0.0111,-0.007 0.04732,0.012 0.08048,0.0427 0.03319,0.0307 0.127312,0.0964 0.20921,0.14585 0.08189,0.0495 0.155353,0.0999 0.163277,0.11199 0.0079,0.0121 0.05454,0.032 0.103641,0.0442 0.04911,0.0122 0.114564,0.0456 0.14546,0.0742 0.03085,0.0287 0.09171,0.0595 0.135137,0.0687 0.04344,0.009 0.0903,0.034 0.104155,0.0553 0.01384,0.0213 0.03602,0.0316 0.04922,0.023 0.01322,-0.009 0.04771,0.004 0.07664,0.0274 0.02894,0.0237 0.08076,0.0519 0.115153,0.0626 0.03441,0.0108 0.168117,0.06 0.297151,0.10953 0.44681,0.17133 1.016632,0.31576 1.320168,0.33462 0.07949,0.005 0.173938,0.0161 0.209894,0.0248 0.113205,0.0274 0.553138,0.0408 0.588152,0.018 0.01843,-0.012 0.0403,-0.0114 0.04863,0.001 0.0083,0.0128 0.06786,0.0217 0.132307,0.0199 0.437911,-0.0124 0.523418,-0.0166 0.606503,-0.0297 0.111449,-0.0177 0.147747,-0.0382 0.12613,-0.0714 -0.02739,-0.042 -0.01266,-0.29623 0.02402,-0.41426 l 0.03493,-0.1124 -0.182091,-0.013 c -0.405522,-0.0291 -0.63006,-0.0601 -0.947387,-0.13098 -0.183166,-0.0409 -0.338598,-0.0829 -0.345397,-0.0934 -0.0068,-0.0104 -0.0731,-0.0354 -0.147312,-0.0555 -0.111267,-0.0301 -0.477871,-0.22771 -0.507875,-0.27374 -0.0046,-0.007 0.02375,-0.0333 0.06299,-0.0583 0.04851,-0.0308 0.138755,-0.0338 0.281734,-0.009 0.208298,0.0358 0.467871,0.0735 0.61003,0.0884 0.04047,0.004 0.222344,0.0152 0.404158,0.0243 0.339219,0.017 0.364175,0.0162 0.837339,-0.0273 l 0.27713,-0.0255 0.327827,-0.23858 c 0.446466,-0.32492 0.418753,-0.28951 0.358344,-0.45802 -0.09486,-0.26464 -0.09957,-0.34318 -0.03886,-0.64787 0.04007,-0.20109 0.109546,-0.37992 0.191956,-0.49408 0.09818,-0.13601 0.100419,-0.17665 0.0064,-0.11533 -0.04507,0.0294 -0.136256,0.0656 -0.202651,0.0806 -0.06639,0.0149 -0.245709,0.0635 -0.398479,0.10797 -0.152775,0.0444 -0.316406,0.0849 -0.363621,0.0899 -0.04722,0.005 -0.25351,0.0307 -0.458434,0.0571 -0.371194,0.0478 -0.939149,0.057 -1.147935,0.0186 -0.0604,-0.0111 -0.167617,-0.0265 -0.238252,-0.0342 -0.125234,-0.0137 -0.168252,-0.068 -0.0928,-0.11714 0.02064,-0.0134 0.235678,-0.0559 0.477871,-0.0944 0.242197,-0.0384 0.466091,-0.0811 0.497543,-0.0948 0.03146,-0.0137 0.0769,-0.02 0.101007,-0.014 0.09312,0.0232 0.763321,-0.18146 1.266359,-0.38666 0.30585,-0.12476 0.698605,-0.34453 0.676451,-0.37852 -0.0098,-0.015 -0.02931,-0.0253 -0.04337,-0.0229 -0.06703,0.0116 -0.561707,-0.22778 -0.723028,-0.34988 -0.236741,-0.17921 -0.467031,-0.47381 -0.537007,-0.68697 -0.02881,-0.0878 -0.06622,-0.15927 -0.08312,-0.15886 -0.01689,4.2e-4 -0.08882,0.056 -0.159771,0.1235 -0.07097,0.0675 -0.323886,0.24977 -0.562028,0.405 -0.37867,0.24683 -0.469395,0.29443 -0.723191,0.37953 -0.159615,0.0535 -0.329079,0.10201 -0.376583,0.10778 -0.109576,0.0133 -0.202507,-0.0276 -0.190515,-0.0838 0.0049,-0.0228 0.213207,-0.18401 0.462973,-0.3582 0.760469,-0.53035 1.023513,-0.77273 1.268458,-1.16882 0.138962,-0.2247 0.173294,-0.39464 0.07932,-0.39257 -0.02828,6e-4 -0.21139,0.10544 -0.406889,0.23294 -0.59483,0.38774 -0.794222,0.454 -1.80259,0.59745 -0.175558,0.025 -0.380108,0.0534 -0.45454,0.0631 -0.07444,0.01 -0.24552,0.0388 -0.380168,0.0645 -0.134659,0.0258 -0.269161,0.0476 -0.298898,0.0484 -0.02974,8.4e-4 -0.131509,0.009 -0.22616,0.0192 -0.300892,0.0308 -0.34312,0.0293 -0.625511,-0.0224 -0.340766,-0.0624 -0.481782,-0.12782 -0.571316,-0.26489 -0.110637,-0.16973 -0.118403,-0.46263 -0.01694,-0.65182 0.03131,-0.0584 0.106086,-0.27452 0.163233,-0.47185 0.08001,-0.27625 0.216307,-0.67082 0.236202,-0.68378 0.01119,-0.007 0.06218,-0.0834 0.113298,-0.16901 0.120002,-0.20104 0.376127,-0.39444 0.551224,-0.41622 0.06537,-0.008 0.170248,-0.0247 0.233056,-0.0367 0.120977,-0.0233 0.64949,-0.0223 0.792676,0.001 0.04675,0.008 0.09219,0.009 0.100993,0.004 0.0088,-0.006 0.189839,-0.005 0.402295,0.001 0.421152,0.0127 1.129059,0.0248 1.225185,0.0209 0.03315,-0.001 0.23592,-0.007 0.450612,-0.0128 0.214694,-0.006 0.48452,-0.018 0.599617,-0.0273 0.115093,-0.009 0.251128,-0.0161 0.302286,-0.015 0.187121,0.004 1.307802,-0.12531 1.70756,-0.1967 0.529753,-0.0946 0.567166,-0.10196 0.813656,-0.1599 0.113822,-0.0268 0.24569,-0.0526 0.293044,-0.0574 0.04736,-0.005 0.1008,-0.0182 0.11876,-0.0298 0.01792,-0.0117 0.05927,-0.0243 0.09177,-0.0282 0.189937,-0.0229 1.315278,-0.39564 1.713214,-0.56745 0.565242,-0.24406 0.719713,-0.31643 1.026626,-0.48093 0.919819,-0.49305 1.938779,-1.26534 2.555732,-1.93711 0.358947,-0.39082 0.934742,-1.19787 0.917736,-1.28634 -0.0028,-0.0146 0.009,-0.0358 0.02613,-0.047 0.02496,-0.0163 0.199681,-0.35332 0.280423,-0.54094 0.04873,-0.11326 0.160048,-0.45628 0.199878,-0.61593 0.02515,-0.10082 0.05481,-0.20854 0.06591,-0.23937 0.05774,-0.16042 0.1008,-0.9113 0.05637,-0.98298 -0.01235,-0.0202 -0.02029,-0.0701 -0.01743,-0.1112 0.0029,-0.0411 -0.01645,-0.10793 -0.04294,-0.14858 -0.02649,-0.0406 -0.03337,-0.0742 -0.01529,-0.0747 0.05245,-10e-4 -0.127652,-0.39847 -0.294812,-0.65022 -0.09347,-0.14069 -0.210286,-0.27925 -0.299715,-0.35537 -0.141214,-0.1202 -0.50675,-0.31122 -0.546812,-0.28577 -0.01061,0.007 -0.02723,4.7e-4 -0.03672,-0.0141 -0.01754,-0.0269 -0.398749,-0.10447 -0.427387,-0.0869 -0.0084,0.005 -0.05949,0.003 -0.113055,-0.004 -0.05356,-0.008 -0.17753,-0.0103 -0.275487,-0.006 -0.09796,0.005 -0.202426,0.009 -0.232158,0.01 -0.02972,9.3e-4 -0.137663,0.0127 -0.23985,0.0263 -0.10218,0.0136 -0.22535,0.0274 -0.273707,0.0307 -0.04835,0.003 -0.111314,0.0209 -0.139904,0.0393 -0.02846,0.0185 -0.121717,0.0402 -0.206954,0.0486 -0.253719,0.025 -0.932124,0.21576 -1.504664,0.42302 -0.479035,0.17342 -1.714466,0.70357 -2.151783,0.92337 -0.197731,0.0994 -0.442504,0.21813 -0.543937,0.26388 -0.584162,0.26349 -0.73135,0.33043 -1.090346,0.49583 -0.735145,0.33872 -0.790687,0.36349 -1.001577,0.44658 -0.115807,0.0456 -0.257586,0.11363 -0.315066,0.15109 -0.05747,0.0375 -0.132,0.0699 -0.165604,0.0722 -0.03361,0.002 -0.138054,0.0381 -0.232097,0.0797 -0.621533,0.27496 -1.891103,0.7449 -2.100074,0.77738 -0.171223,0.0266 -0.423669,0.0939 -0.473176,0.12616 -0.03015,0.0196 -0.08014,0.0279 -0.111095,0.0183 -0.03094,-0.01 -0.103536,0.003 -0.161328,0.0269 -0.05778,0.0244 -0.123068,0.0428 -0.145074,0.0408 -0.02201,-0.002 -0.17746,0.0287 -0.345456,0.0681 -0.27803,0.0652 -0.437381,0.0903 -0.49463,0.0779 -0.01175,-0.003 -0.07632,0.009 -0.143466,0.0254 -0.06715,0.0165 -0.179359,0.029 -0.249352,0.0277 -0.06999,-0.001 -0.166579,0.0125 -0.214645,0.0307 -0.04807,0.0182 -0.09384,0.0232 -0.101722,0.011 -0.0079,-0.0121 -0.04376,-0.0138 -0.07973,-0.004 -0.03597,0.01 -0.126584,0.0167 -0.20136,0.015 -0.07478,-0.002 -0.167877,0.004 -0.20689,0.0117 -0.03901,0.008 -0.156209,0.0119 -0.260446,0.008 -0.104234,-0.004 -0.202477,0.002 -0.218305,0.0121 -0.01582,0.0103 -0.113219,0.0118 -0.216418,0.003 -0.103201,-0.008 -0.27361,-0.0172 -0.3787,-0.0193 -0.105088,-0.002 -0.281271,-0.0112 -0.391522,-0.0202 -0.110246,-0.009 -0.226907,-0.0155 -0.25924,-0.0146 -0.03233,9.1e-4 -0.152547,-0.006 -0.267135,-0.0155 -0.563387,-0.0464 -0.689326,-0.0561 -0.884328,-0.0685 -0.115851,-0.007 -0.283144,-0.0232 -0.371754,-0.0352 -0.250104,-0.0339 -0.439773,-0.0562 -0.664809,-0.078 -0.113736,-0.011 -0.375368,-0.0382 -0.581421,-0.0604 -0.669103,-0.0722 -1.554066,-0.10615 -2.297604,-0.0881 -0.36681,0.009 -0.911954,0.0333 -1.033899,0.0463 -0.224626,0.0239 -0.384481,0.0357 -0.431452,0.0317 -0.09265,-0.008 -0.651369,0.0489 -0.682414,0.0691 -0.01747,0.0114 -0.06016,0.0172 -0.09485,0.0129 -0.05323,-0.007 -0.31582,0.0282 -0.796823,0.10568 -0.05482,0.009 -0.236899,0.0463 -0.404614,0.0833 -0.167721,0.037 -0.348739,0.0718 -0.402266,0.0774 -0.05353,0.006 -0.112847,0.0203 -0.13181,0.0326 -0.01896,0.0123 -0.07779,0.0278 -0.130748,0.0342 -0.124111,0.0152 -0.275546,0.0538 -0.482632,0.12312 -0.09117,0.0305 -0.195317,0.0573 -0.231441,0.0594 -0.03613,0.002 -0.163284,0.0352 -0.282593,0.0734 -0.119304,0.0382 -0.292509,0.0929 -0.384905,0.12153 -0.341662,0.1059 -1.358069,0.5007 -1.64066,0.6373 -0.0691,0.0334 -0.247441,0.11464 -0.396321,0.18056 -0.296127,0.1311 -0.59902,0.28231 -1.080344,0.53932 -0.172268,0.092 -0.369512,0.19494 -0.438316,0.22879 -0.06881,0.0338 -0.400044,0.2354 -0.736083,0.44789 -0.819696,0.51831 -2.031409,1.44077 -2.478405,1.88676 -0.05509,0.0549 -0.147536,0.14118 -0.2055,0.19167 -0.534473,0.46546 -1.53153,1.48377 -1.996765,2.03933 -0.12593,0.15039 -0.242572,0.28229 -0.259189,0.29313 -0.01664,0.0108 -0.04365,0.0431 -0.06015,0.0716 -0.01647,0.0285 -0.06869,0.0938 -0.116044,0.14508 -0.04742,0.0512 -0.187752,0.22875 -0.311965,0.39446 -0.124208,0.16571 -0.264045,0.34198 -0.310752,0.39171 -0.0467,0.0498 -0.104569,0.12571 -0.128573,0.16886 -0.03746,0.0673 -0.224185,0.32832 -0.433816,0.60642 -0.03249,0.0431 -0.115228,0.15509 -0.183862,0.24886 -0.06864,0.0938 -0.16811,0.21999 -0.221064,0.28045 -0.05296,0.0605 -0.123275,0.14455 -0.156272,0.18688 -0.166111,0.21301 -0.269875,0.33029 -0.322404,0.36437 -0.03188,0.0208 -0.0505,0.0493 -0.04126,0.0634 0.0092,0.0142 -0.01012,0.0433 -0.04304,0.0647 -0.03288,0.0214 -0.149062,0.12835 -0.258172,0.23759 -0.761023,0.76194 -1.676072,1.3768 -2.781232,1.86882 -0.250419,0.11149 -0.499567,0.22353 -0.553654,0.24897 -0.05409,0.0255 -0.128108,0.0513 -0.164485,0.0575 -0.03638,0.006 -0.186547,0.0799 -0.333703,0.16398 -0.359144,0.20508 -0.343842,0.19728 -0.38591,0.19654 -0.06879,-0.001 -0.255178,0.1094 -0.847134,0.50281 -0.640071,0.42539 -0.923839,0.63676 -0.937952,0.69864 -0.005,0.0218 -0.09366,0.0948 -0.197147,0.16225 -0.103457,0.0674 -0.181365,0.13294 -0.17314,0.14556 0.0082,0.0126 -0.01903,0.0532 -0.06058,0.0901 -0.152,0.13512 -0.520095,0.51707 -0.585879,0.60792 -0.03719,0.0514 -0.145418,0.18949 -0.240508,0.30693 -0.09509,0.11745 -0.197112,0.26021 -0.226711,0.31725 -0.0296,0.0571 -0.06589,0.11159 -0.08065,0.12122 -0.0328,0.0214 -0.157196,0.21793 -0.159962,0.25275 -0.0012,0.0138 -0.03115,0.0562 -0.06679,0.0943 -0.07334,0.0783 -0.189641,0.30919 -0.223733,0.44416 -0.01254,0.0496 -0.03912,0.0944 -0.0591,0.0997 -0.01999,0.005 -0.05241,0.0627 -0.07206,0.12771 -0.01966,0.065 -0.04562,0.12465 -0.05769,0.13252 -0.01208,0.008 -0.02767,0.0391 -0.03458,0.0694 -0.0069,0.0303 -0.03421,0.10175 -0.06061,0.15883 -0.113854,0.24623 -0.399176,1.42522 -0.421156,1.74026 -0.01289,0.185 0.0072,0.22108 0.104506,0.18756 0.04122,-0.0142 0.08237,-0.0144 0.09143,-5.4e-4 0.0091,0.0139 0.03678,0.0121 0.06161,-0.004 0.06667,-0.0435 0.432874,-0.0284 0.704154,0.0288 0.130677,0.0276 0.242186,0.0571 0.247796,0.0657 0.0056,0.009 0.03115,0.0219 0.05674,0.0297 0.175757,0.0529 0.230948,0.0737 0.24239,0.0913 0.0072,0.011 0.03817,0.0254 0.06888,0.0321 0.09019,0.0196 0.432557,0.23025 0.471699,0.2903 0.01978,0.0303 0.05384,0.0592 0.07572,0.0641 0.06643,0.015 0.328519,0.21813 0.376692,0.292 0.02485,0.0381 0.06147,0.0689 0.08136,0.0684 0.01987,-4.9e-4 0.049,0.0187 0.06467,0.0427 0.01564,0.024 0.06753,0.0654 0.115167,0.0922 0.04763,0.0268 0.09814,0.0664 0.112238,0.088 0.03343,0.0513 0.276788,0.19565 0.361282,0.2143 0.03622,0.008 0.130132,0.0381 0.208685,0.067 0.07856,0.0289 0.153701,0.0536 0.166986,0.0551 0.07722,0.008 0.569371,0.25175 0.697893,0.34516 0.08362,0.0608 0.175839,0.12367 0.204908,0.13979 0.02908,0.0161 0.06657,0.0503 0.08333,0.076 0.01675,0.0257 0.05435,0.0518 0.08362,0.058 0.03886,0.008 0.140083,0.14451 0.375685,0.50594 0.337718,0.5181 0.375889,0.60799 0.415505,0.97863 0.0057,0.0535 0.01896,0.1109 0.02945,0.12768 0.01024,0.0169 0.01529,0.0743 0.01066,0.12775 -0.0046,0.0535 0.0019,0.11347 0.01424,0.13327 0.01222,0.02 0.01452,0.068 0.0045,0.10718 -0.01,0.0391 -0.01384,0.1119 -0.0087,0.16167 0.0052,0.0498 -0.0076,0.19025 -0.02838,0.31222 -0.0208,0.12195 -0.04168,0.25877 -0.04639,0.30403 -0.0047,0.0453 -0.02061,0.0974 -0.03532,0.11595 -0.01631,0.0205 0.01073,0.0287 0.06934,0.0209 0.297023,-0.0394 0.808477,-0.14505 1.078904,-0.22294 0.12751,-0.0367 0.260908,-0.0729 0.296443,-0.0803 0.20687,-0.0434 0.392648,-0.10807 1.256788,-0.43762 0.258768,-0.0987 0.568478,-0.21182 0.688235,-0.2514 0.11976,-0.0396 0.219834,-0.0819 0.222386,-0.094 0.0026,-0.0121 0.02908,-0.0189 0.0586,-0.0158 0.02967,0.003 0.151647,-0.0338 0.271064,-0.0827 0.213638,-0.0875 0.686335,-0.20579 1.026668,-0.25698 0.09537,-0.0144 0.183496,-0.0327 0.195835,-0.0407 0.0387,-0.0252 0.989706,-0.2061 1.034259,-0.19671 0.02331,0.005 0.06808,-0.008 0.09949,-0.0283 0.03141,-0.0205 0.06703,-0.0305 0.07914,-0.0222 0.03096,0.0211 0.414945,-0.0349 0.698473,-0.10191 0.131239,-0.031 0.351422,-0.0814 0.489292,-0.11194 0.13788,-0.0306 0.270816,-0.0687 0.29542,-0.0847 0.0246,-0.016 0.06252,-0.0259 0.08427,-0.022 0.02175,0.004 0.148292,-0.0288 0.281206,-0.0727 0.132915,-0.0439 0.317335,-0.10319 0.409814,-0.13169 0.314461,-0.0969 0.381283,-0.11895 0.551585,-0.18176 0.166081,-0.0612 0.169322,-0.0641 0.133859,-0.11714 -0.08625,-0.12899 -0.667626,-0.50245 -1.109992,-0.71299 -0.07162,-0.0341 -0.16312,-0.0818 -0.20332,-0.10612 -0.0402,-0.0243 -0.08402,-0.0453 -0.09737,-0.0467 -0.01335,-0.001 -0.06032,-0.0223 -0.104385,-0.0464 -0.04407,-0.0241 -0.151005,-0.0824 -0.237651,-0.12963 l -0.157533,-0.0858 0.09062,-0.0591 c 0.04984,-0.0325 0.09764,-0.0483 0.106224,-0.0351 0.0086,0.0132 0.0911,0.0251 0.183372,0.0266 0.09226,0.001 0.195646,0.005 0.229729,0.009 0.144681,0.0145 0.764564,0.14745 0.901399,0.19335 0.08182,0.0274 0.202065,0.0671 0.267214,0.0881 0.06515,0.021 0.125888,0.0496 0.134976,0.0636 0.0091,0.0139 0.04435,0.0286 0.07836,0.0325 0.03403,0.004 0.101619,0.0321 0.150225,0.0626 0.04859,0.0305 0.113429,0.068 0.14404,0.0834 0.0996,0.05 0.161256,0.0849 0.294171,0.16622 0.186343,0.11408 0.232851,0.14729 0.302341,0.21597 0.0339,0.0334 0.07293,0.0534 0.08684,0.0444 0.01389,-0.009 0.04304,0.0108 0.06475,0.0441 0.04316,0.0662 0.19862,0.19549 0.238824,0.19861 0.02576,0.002 0.499053,0.54466 0.612457,0.70223 0.03462,0.0481 0.07847,0.0939 0.09745,0.1017 0.01896,0.008 0.0994,0.0958 0.178726,0.19559 0.335703,0.42214 0.465133,0.57484 0.622214,0.73409 0.212389,0.21531 0.620667,0.58325 0.688501,0.62046 0.02868,0.0157 0.06579,0.0497 0.08247,0.0755 0.03445,0.0528 0.814261,0.52054 0.85531,0.5127 0.01461,-0.003 0.0344,0.007 0.04398,0.0216 0.0311,0.0477 0.677547,0.26308 1.019821,0.33977 0.305829,0.0685 0.608312,0.11111 0.877159,0.1235 0.05787,0.003 0.1267,0.009 0.152961,0.0134 0.06075,0.0109 0.501959,-0.0201 0.812058,-0.057 0.243563,-0.029 0.582891,-0.12629 0.605088,-0.17349 0.0068,-0.0144 0.02731,-0.0192 0.04559,-0.0106 0.01829,0.009 0.09865,-0.027 0.1786,-0.0791 0.08617,-0.0562 0.129297,-0.0976 0.10591,-0.10175 z m -13.297673,-1.85887 c 0.003,-0.0141 0.02461,-0.0295 0.04808,-0.0342 0.02591,-0.005 0.0238,0.005 -0.0054,0.0257 -0.02645,0.0188 -0.04563,0.0226 -0.04265,0.008 z M 31.37139,151.043 c -0.03022,1.2e-4 -0.04334,-0.007 -0.02917,-0.0166 0.01417,-0.009 0.05048,-0.0169 0.08069,-0.017 0.03022,-1.2e-4 0.04334,0.007 0.02918,0.0166 -0.01417,0.009 -0.05049,0.0169 -0.0807,0.017 z m -1.474425,-4.96559 c -0.201013,0.0244 -0.522559,-0.0694 -0.58939,-0.17195 -0.01938,-0.0297 -0.04873,-0.0569 -0.06522,-0.0604 -0.119725,-0.0252 -0.228935,-0.35477 -0.205406,-0.61995 0.01689,-0.19051 0.0777,-0.3126 0.252819,-0.50757 0.211153,-0.2351 0.768854,-0.25584 0.968078,-0.036 0.04639,0.0512 0.09446,0.0865 0.106814,0.0784 0.01238,-0.008 0.06025,0.0433 0.106451,0.11418 0.04619,0.0709 0.07239,0.13639 0.05822,0.14563 -0.01417,0.009 -0.0073,0.0452 0.01538,0.0799 0.05163,0.0792 0.04888,0.3649 -0.0048,0.50162 -0.104804,0.26676 -0.337425,0.43901 -0.64292,0.47607 z m -3.178749,8.97816 c 0.0023,-0.0128 0.142545,-0.13978 0.311732,-0.28216 0.169194,-0.14238 0.389319,-0.34465 0.489176,-0.44949 0.09986,-0.10483 0.207312,-0.20739 0.238787,-0.22791 0.03148,-0.0205 0.06121,-0.0562 0.06606,-0.0792 0.0048,-0.0231 0.06444,-0.0952 0.132372,-0.16023 0.06795,-0.0651 0.194076,-0.20536 0.280297,-0.31176 0.08622,-0.1064 0.174687,-0.20515 0.196595,-0.21943 0.02189,-0.0143 0.03227,-0.0376 0.02303,-0.0517 -0.0092,-0.0142 0.0097,-0.043 0.04207,-0.0641 0.05879,-0.0383 0.268124,-0.29647 0.326067,-0.4021 0.01685,-0.0307 0.04713,-0.0732 0.0673,-0.0945 0.154872,-0.16327 0.222856,-0.24341 0.315264,-0.37167 0.131826,-0.18299 0.244694,-0.30352 0.400454,-0.42769 0.06644,-0.053 0.154192,-0.13379 0.194997,-0.17962 0.04081,-0.0458 0.111479,-0.10771 0.157049,-0.13753 0.144976,-0.0945 0.362723,-0.54381 0.421119,-0.86785 0.0376,-0.2086 0.04401,-0.51846 0.01175,-0.56795 -0.01215,-0.0186 -0.01843,-0.0757 -0.01396,-0.12673 0.01259,-0.1439 -0.07663,-0.36212 -0.298984,-0.73138 -0.158566,-0.26332 -0.2311,-0.36046 -0.326115,-0.43684 -0.06722,-0.054 -0.134246,-0.1167 -0.148971,-0.13928 -0.01473,-0.0226 -0.04851,-0.0364 -0.07508,-0.0307 -0.02657,0.006 -0.06059,-0.008 -0.07559,-0.0315 -0.04716,-0.0724 -0.445275,-0.24777 -0.761632,-0.33561 -0.04345,-0.0121 -0.137449,-0.0499 -0.208887,-0.0841 -0.07143,-0.0342 -0.1416,-0.0601 -0.155911,-0.0575 -0.01431,0.003 -0.03491,-0.009 -0.04577,-0.0252 -0.0108,-0.0165 -0.05503,-0.0498 -0.09818,-0.074 -0.04313,-0.0242 -0.115956,-0.0833 -0.161816,-0.1313 -0.04587,-0.048 -0.115137,-0.1 -0.153913,-0.11555 -0.03879,-0.0156 -0.103285,-0.0786 -0.143354,-0.14007 -0.04428,-0.0679 -0.07888,-0.0989 -0.08823,-0.079 -0.0086,0.0184 -0.03316,0.005 -0.05586,-0.0294 -0.05365,-0.0823 -0.196791,-0.19146 -0.226081,-0.17237 -0.0128,0.008 -0.03976,-0.0102 -0.05993,-0.0411 -0.04491,-0.0689 -0.280383,-0.21434 -0.312796,-0.19321 -0.01291,0.008 -0.0385,-0.008 -0.05688,-0.0359 -0.05212,-0.08 -0.291866,-0.14611 -0.581979,-0.16058 -0.303961,-0.0152 -0.403416,0.0128 -0.667237,0.18738 -0.235753,0.15607 -0.34334,0.28107 -0.39692,0.46127 -0.06604,0.22208 -0.161109,0.73854 -0.141493,0.76863 0.0124,0.0191 0.01659,0.0853 0.0093,0.1471 -0.0073,0.0619 -0.0073,0.16635 1.37e-4,0.2322 0.02236,0.19904 -0.09427,0.62091 -0.204466,0.73953 -0.03176,0.0342 -0.06336,0.0974 -0.07021,0.14041 -0.0068,0.043 -0.024,0.0858 -0.03811,0.095 -0.0378,0.0246 -0.220942,0.33582 -0.23546,0.40008 -0.0069,0.0304 -0.03417,0.0694 -0.06061,0.0867 -0.02649,0.0173 -0.04779,0.047 -0.04733,0.0661 4.65e-4,0.0191 -0.04952,0.096 -0.111061,0.1709 -0.06154,0.0749 -0.106339,0.14474 -0.09954,0.15517 0.0068,0.0104 -0.04918,0.0956 -0.124399,0.18935 -0.134238,0.16727 -0.170695,0.22134 -0.278191,0.41273 -0.02949,0.0525 -0.08149,0.11361 -0.11556,0.13582 -0.03408,0.0222 -0.07337,0.0721 -0.08732,0.11082 -0.01396,0.0387 -0.04655,0.0848 -0.07247,0.10231 -0.02584,0.0176 -0.07287,0.0722 -0.104371,0.12152 -0.03149,0.0493 -0.141796,0.18807 -0.245113,0.30838 -0.103322,0.12031 -0.212323,0.25724 -0.242228,0.3043 -0.05564,0.0876 -0.372083,0.42219 -0.548783,0.58033 -0.05421,0.0485 -0.09245,0.0976 -0.085,0.109 0.0074,0.0114 -0.02629,0.0547 -0.07499,0.0962 -0.190367,0.16209 -0.469039,0.44315 -0.469218,0.47325 -1.08e-4,0.0174 -0.03952,0.0672 -0.08759,0.11059 -0.04807,0.0434 -0.111831,0.12054 -0.141698,0.17147 -0.02987,0.0509 -0.07306,0.10492 -0.09616,0.11988 -0.06793,0.0443 -0.281258,0.42276 -0.349936,0.62087 -0.09931,0.28642 -0.07834,0.41368 0.117931,0.71589 0.12915,0.19933 0.187624,0.26592 0.275795,0.31589 0.190708,0.10808 0.690387,0.19995 0.921058,0.16934 0.262721,-0.0349 0.749701,-0.14923 0.81404,-0.19117 0.03393,-0.0221 0.116093,-0.0523 0.182591,-0.0671 0.18204,-0.0405 0.504502,-0.21693 1.076302,-0.58892 0.528253,-0.34356 0.948116,-0.65462 1.015247,-0.75186 0.04338,-0.0629 0.203675,-0.22373 0.466089,-0.4678 0.100571,-0.0935 0.261448,-0.26496 0.357504,-0.38093 0.09605,-0.11596 0.222225,-0.26458 0.280371,-0.33028 0.166565,-0.18816 0.305045,-0.37518 0.299395,-0.40434 -0.0029,-0.0147 0.01738,-0.0414 0.04493,-0.0594 0.05786,-0.0377 0.462452,-0.5395 0.525609,-0.65187 0.02338,-0.0416 0.06943,-0.104 0.102354,-0.13869 0.03293,-0.0347 0.05245,-0.0744 0.04339,-0.0883 -0.0091,-0.0139 0.01687,-0.047 0.05767,-0.0736 0.04078,-0.0266 0.07704,-0.0734 0.08058,-0.10399 0.0035,-0.0306 0.03301,-0.0836 0.06549,-0.11765 0.03248,-0.0341 0.09101,-0.11435 0.130073,-0.17834 0.03906,-0.064 0.11261,-0.17929 0.163427,-0.25622 0.05081,-0.0769 0.149438,-0.23292 0.219145,-0.34664 0.06972,-0.11371 0.13982,-0.21527 0.155802,-0.22568 0.01598,-0.0104 0.0225,-0.029 0.01452,-0.0412 -0.01785,-0.0274 0.217642,-0.3304 0.296913,-0.38207 0.03159,-0.0206 0.103178,-0.0421 0.159085,-0.0477 0.09663,-0.01 0.107008,-0.002 0.20999,0.15595 0.102165,0.15674 0.106242,0.17414 0.0721,0.3053 -0.01992,0.0765 -0.05658,0.1751 -0.08145,0.2191 -0.02488,0.044 -0.07308,0.12955 -0.107136,0.19013 -0.113319,0.20162 -0.262688,0.43211 -0.292704,0.45167 -0.01631,0.0106 -0.02268,0.03 -0.01417,0.043 0.0085,0.013 -0.01384,0.0535 -0.04968,0.09 -0.03583,0.0364 -0.125107,0.17029 -0.198389,0.29745 -0.07328,0.12716 -0.153471,0.24438 -0.178201,0.26048 -0.02472,0.0161 -0.0504,0.0544 -0.05706,0.0851 -0.0067,0.0307 -0.104993,0.1795 -0.218503,0.33064 -0.113513,0.15114 -0.21237,0.29097 -0.219681,0.31073 -0.0073,0.0198 -0.06489,0.0899 -0.127963,0.1559 -0.06308,0.066 -0.114325,0.13459 -0.11389,0.15248 4.66e-4,0.0179 -0.0204,0.0463 -0.04629,0.0632 -0.02589,0.0169 -0.06898,0.0697 -0.09578,0.11729 -0.02679,0.0476 -0.06911,0.1 -0.09405,0.11637 -0.02499,0.0163 -0.0588,0.0531 -0.07524,0.0817 -0.06834,0.11866 -0.129153,0.19406 -0.220399,0.27326 -0.0531,0.0461 -0.118608,0.12302 -0.145574,0.17095 -0.02696,0.0479 -0.08434,0.11027 -0.127505,0.13853 -0.04323,0.0282 -0.08333,0.068 -0.08924,0.0884 -0.01128,0.0389 -0.09353,0.12704 -0.441964,0.47384 -0.450586,0.44847 -0.833265,0.75155 -1.448108,1.1469 l -0.395919,0.25459 0.120874,0.0165 c 0.271895,0.0371 0.536933,-0.0132 1.016309,-0.19301 0.18992,-0.0712 1.108278,-0.60989 1.116221,-0.65472 z m -3.883261,-0.98279 c -0.02668,-0.003 -0.08001,-0.007 -0.118534,-0.008 -0.170599,-0.005 -0.192561,-0.31012 -0.03348,-0.46595 0.03766,-0.0369 0.06814,-0.0812 0.06772,-0.0986 -0.0014,-0.0602 0.26485,-0.20674 0.402392,-0.2214 0.151437,-0.0162 0.201448,-3.5e-4 0.25501,0.0806 0.04626,0.0698 -0.01852,0.28181 -0.12546,0.41096 -0.09756,0.11782 -0.383351,0.31098 -0.447657,0.30254 z m -0.903397,-0.4601 c 0.003,-0.0141 0.02461,-0.0295 0.04807,-0.0342 0.02591,-0.005 0.0238,0.005 -0.0054,0.0257 -0.02645,0.0188 -0.04564,0.0226 -0.04264,0.009 z"
       id="path47-9" />
    <path
       style="fill:#ffffff;fill-opacity:1;stroke-width:0.0647419"
       d="m 26.72857,155.04929 c 0.0023,-0.0128 0.142544,-0.13977 0.311732,-0.28216 0.169194,-0.14238 0.389318,-0.34465 0.489176,-0.44949 0.09986,-0.10483 0.207312,-0.20739 0.238787,-0.2279 0.03148,-0.0205 0.06121,-0.0562 0.06606,-0.0792 0.0048,-0.0231 0.06444,-0.0952 0.132373,-0.16023 0.06795,-0.0651 0.194075,-0.20536 0.280296,-0.31176 0.08622,-0.1064 0.174688,-0.20514 0.196596,-0.21942 0.02189,-0.0143 0.03227,-0.0376 0.02303,-0.0517 -0.0092,-0.0142 0.0097,-0.043 0.04207,-0.0641 0.05879,-0.0383 0.268123,-0.29646 0.326066,-0.4021 0.01684,-0.0307 0.04713,-0.0732 0.0673,-0.0945 0.154871,-0.16327 0.222856,-0.24341 0.315264,-0.37167 0.131825,-0.18298 0.244694,-0.30352 0.400454,-0.42768 0.06644,-0.053 0.154192,-0.1338 0.194996,-0.17962 0.04081,-0.0458 0.11148,-0.10772 0.157049,-0.13754 0.144977,-0.0945 0.362723,-0.54381 0.42112,-0.86785 0.0376,-0.2086 0.04401,-0.51846 0.01175,-0.56794 -0.01214,-0.0186 -0.01843,-0.0757 -0.01396,-0.12674 0.01259,-0.14389 -0.07663,-0.36212 -0.298985,-0.73137 -0.158566,-0.26333 -0.231099,-0.36046 -0.326115,-0.43685 -0.06722,-0.054 -0.134245,-0.1167 -0.148971,-0.13928 -0.01473,-0.0226 -0.04851,-0.0364 -0.07508,-0.0307 -0.02657,0.006 -0.06059,-0.008 -0.07559,-0.0315 -0.04716,-0.0724 -0.445274,-0.24777 -0.761632,-0.33561 -0.04345,-0.0121 -0.137449,-0.0499 -0.208886,-0.0841 -0.07143,-0.0342 -0.1416,-0.0601 -0.155912,-0.0575 -0.01431,0.003 -0.03491,-0.009 -0.04577,-0.0252 -0.0108,-0.0165 -0.05503,-0.0498 -0.09817,-0.074 -0.04313,-0.0242 -0.115956,-0.0833 -0.161817,-0.1313 -0.04587,-0.048 -0.115136,-0.0999 -0.153912,-0.11554 -0.03879,-0.0156 -0.103285,-0.0786 -0.143355,-0.14007 -0.04428,-0.0679 -0.07887,-0.0989 -0.08823,-0.079 -0.0086,0.0183 -0.03316,0.005 -0.05587,-0.0294 -0.05364,-0.0823 -0.19679,-0.19146 -0.22608,-0.17236 -0.0128,0.008 -0.03976,-0.0102 -0.05993,-0.0411 -0.04491,-0.0689 -0.280382,-0.21434 -0.312795,-0.19321 -0.01291,0.008 -0.0385,-0.008 -0.05687,-0.0359 -0.05212,-0.0799 -0.291867,-0.1461 -0.581979,-0.16058 -0.303961,-0.0152 -0.403416,0.0128 -0.667238,0.18738 -0.235752,0.15607 -0.343339,0.28107 -0.39692,0.46127 -0.06604,0.22209 -0.161109,0.73855 -0.141493,0.76864 0.0124,0.0191 0.01659,0.0852 0.0093,0.1471 -0.0073,0.0619 -0.0073,0.16634 1.38e-4,0.23219 0.02236,0.19904 -0.09427,0.62092 -0.204466,0.73953 -0.03176,0.0342 -0.06336,0.0974 -0.07021,0.14042 -0.0068,0.043 -0.024,0.0858 -0.03811,0.095 -0.0378,0.0246 -0.220941,0.33582 -0.235459,0.40008 -0.0069,0.0304 -0.03417,0.0694 -0.06061,0.0867 -0.02649,0.0173 -0.04779,0.047 -0.04733,0.0661 4.66e-4,0.0191 -0.04952,0.096 -0.11106,0.17089 -0.06154,0.0749 -0.10634,0.14474 -0.09954,0.15517 0.0068,0.0104 -0.04918,0.0956 -0.124399,0.18935 -0.134239,0.16727 -0.170695,0.22134 -0.278191,0.41273 -0.02949,0.0525 -0.08149,0.11361 -0.11556,0.13582 -0.03408,0.0222 -0.07337,0.0721 -0.08732,0.11082 -0.01396,0.0388 -0.04655,0.0848 -0.07247,0.10231 -0.02584,0.0176 -0.07287,0.0722 -0.104372,0.12152 -0.03149,0.0493 -0.141795,0.18807 -0.245113,0.30838 -0.103321,0.12031 -0.212323,0.25724 -0.242227,0.30431 -0.05564,0.0875 -0.372083,0.42218 -0.548783,0.58032 -0.05421,0.0485 -0.09245,0.0976 -0.085,0.109 0.0074,0.0114 -0.02629,0.0547 -0.07499,0.0962 -0.190366,0.16209 -0.469039,0.44315 -0.469218,0.47325 -1.07e-4,0.0174 -0.03952,0.0672 -0.08759,0.11059 -0.04807,0.0434 -0.11183,0.12055 -0.141697,0.17147 -0.02987,0.0509 -0.07306,0.10492 -0.09616,0.11988 -0.06793,0.0443 -0.281257,0.42277 -0.349935,0.62087 -0.09931,0.28643 -0.07834,0.41368 0.117931,0.7159 0.12915,0.19933 0.187623,0.26591 0.275794,0.31588 0.190709,0.10808 0.690388,0.19995 0.921059,0.16934 0.262721,-0.0349 0.749701,-0.14922 0.81404,-0.19116 0.03393,-0.0221 0.116093,-0.0523 0.182591,-0.0671 0.182039,-0.0405 0.504502,-0.21693 1.076302,-0.58892 0.528252,-0.34356 0.948115,-0.65462 1.015246,-0.75185 0.04338,-0.0629 0.203675,-0.22374 0.466089,-0.46781 0.100572,-0.0935 0.261448,-0.26496 0.357504,-0.38092 0.09605,-0.11596 0.222226,-0.26459 0.280371,-0.33028 0.166565,-0.18816 0.305045,-0.37519 0.299396,-0.40435 -0.0029,-0.0147 0.01738,-0.0414 0.04493,-0.0594 0.05786,-0.0377 0.462453,-0.53949 0.52561,-0.65187 0.02338,-0.0416 0.06943,-0.104 0.102354,-0.13869 0.03293,-0.0347 0.05245,-0.0744 0.04339,-0.0883 -0.0091,-0.0139 0.01687,-0.047 0.05767,-0.0736 0.04078,-0.0266 0.07704,-0.0734 0.08058,-0.104 0.0035,-0.0306 0.03301,-0.0836 0.06549,-0.11765 0.03248,-0.0341 0.09101,-0.11434 0.130074,-0.17834 0.03906,-0.064 0.11261,-0.17928 0.163426,-0.25622 0.05081,-0.0769 0.149439,-0.23292 0.219145,-0.34663 0.06972,-0.11372 0.139821,-0.21527 0.155802,-0.22569 0.01598,-0.0104 0.0225,-0.029 0.01452,-0.0412 -0.01785,-0.0274 0.217642,-0.33039 0.296913,-0.38207 0.03159,-0.0206 0.103178,-0.0421 0.159085,-0.0477 0.09663,-0.01 0.107007,-0.002 0.209989,0.15595 0.102166,0.15674 0.106242,0.17414 0.0721,0.30531 -0.01992,0.0765 -0.05658,0.1751 -0.08145,0.21909 -0.02487,0.044 -0.07308,0.12955 -0.107135,0.19013 -0.11332,0.20162 -0.262688,0.43211 -0.292704,0.45168 -0.01631,0.0106 -0.02268,0.03 -0.01417,0.043 0.0085,0.013 -0.01384,0.0535 -0.04968,0.09 -0.03583,0.0364 -0.125106,0.17029 -0.198389,0.29745 -0.07328,0.12716 -0.15347,0.24438 -0.1782,0.26049 -0.02472,0.0161 -0.0504,0.0544 -0.05706,0.0851 -0.0067,0.0307 -0.104992,0.1795 -0.218503,0.33064 -0.113512,0.15114 -0.21237,0.29097 -0.21968,0.31074 -0.0073,0.0198 -0.06489,0.0899 -0.127963,0.15589 -0.06308,0.066 -0.114325,0.1346 -0.11389,0.15248 4.65e-4,0.0179 -0.0204,0.0463 -0.04629,0.0632 -0.02589,0.0169 -0.06898,0.0696 -0.09578,0.11728 -0.02679,0.0476 -0.06911,0.1 -0.09405,0.11638 -0.02499,0.0163 -0.0588,0.0531 -0.07524,0.0817 -0.06834,0.11867 -0.129152,0.19406 -0.220399,0.27326 -0.0531,0.0461 -0.118608,0.12302 -0.145574,0.17095 -0.02696,0.0479 -0.08434,0.11027 -0.127505,0.13853 -0.04323,0.0282 -0.08333,0.068 -0.08924,0.0884 -0.01129,0.0389 -0.09353,0.12704 -0.441964,0.47384 -0.450587,0.44847 -0.833265,0.75156 -1.448108,1.14691 l -0.39592,0.25458 0.120874,0.0165 c 0.271895,0.0371 0.536934,-0.0132 1.01631,-0.19301 0.18992,-0.0712 1.108277,-0.60989 1.116221,-0.65472 z m -3.883262,-0.98279 c -0.02668,-0.003 -0.08001,-0.007 -0.118533,-0.008 -0.1706,-0.004 -0.192561,-0.31012 -0.03348,-0.46595 0.03766,-0.0369 0.06814,-0.0813 0.06772,-0.0985 -0.0014,-0.0602 0.26485,-0.20674 0.402393,-0.2214 0.151437,-0.0161 0.201448,-4.7e-4 0.25501,0.0806 0.04626,0.0698 -0.01852,0.2818 -0.12546,0.41096 -0.09756,0.11782 -0.383351,0.31098 -0.447657,0.30254 z m -0.903397,-0.46009 c 0.003,-0.0142 0.02461,-0.0296 0.04808,-0.0342 0.02591,-0.005 0.0238,0.005 -0.0054,0.0257 -0.02645,0.0188 -0.04564,0.0226 -0.04264,0.009 z"
       id="path47-3-7"
       sodipodi:nodetypes="ssssssssssssssscssssssssssscsssssssssssssssssssssssssssscssssssssscscsssscssssssssssssssssssssssssssssssssssscssscssscssssssssscssssssss" />
  </g>
</svg>
